#!OML:ASF F:\VICON\USERDATA\INSTALL\rory3\rory3.ASF
:FULLY-SPECIFIED
:DEGREES
210
root 0.4928697355978784 17.631234984825724 63.16551980792515 -0.863976728266149 -2.319717504919722 -2.6729184939816357
lfemur -10.937047886565985 -1.9626691624865267 -18.20985300941212
ltibia 30.972318851628273
lfoot -0.13199379572005387 -0.39512094318164515
ltoes -6.535595407214549
rfemur -17.412186289481394 3.846879929920894 24.9900869106904
rtibia 39.92832304773097
rfoot -4.414451282672308 -10.643373659465304
rtoes 5.3813432426747125
lowerback 11.4392857408806 0.609720951473984 2.3118433154501936
upperback -0.11018772889021476 1.3106761779671259 1.9063404770342134
thorax -6.24755997777329 0.6288024815810263 -0.2133891242614352
lowerneck -16.374734288510098 -3.1075680587534356 -3.378146862452545
upperneck 21.912668277136007 -3.8384453880253853 1.767809530946744
head 9.612298143601471 -1.8432978068627177 0.7462948801020133
lclavicle -2.0246983115066303e-15 -7.106299256417689e-16
lhumerus -33.14242872062067 2.126903574803941 80.2852559059366
lradius 27.32827095342421
lwrist 5.846679679476473
lhand -29.40822036325093 19.190719654276315
lfingers 7.12502
lthumb -2.488270846851688 49.41639038715794
rclavicle -2.0272205511497803e-15 -7.122208379460721e-16
rhumerus -29.880895153582987 -21.29136991574566 -75.49866971161168
rradius 20.912183230833932
rwrist 6.528639978655381
rhand -17.671814434373005 21.428008576708578
rfingers 7.12502
rthumb 7.981301360331698 -7.4924245022626
211
root 0.49417672804513113 17.59860679981873 62.90345882193384 -0.9839086948673625 -2.312863865297374 -2.8637784711684957
lfemur -11.115144462253754 -1.9734863029921588 -18.009841502595812
ltibia 31.279010549215783
lfoot -1.1902742636853638 -0.14248938725122073
ltoes -7.156306481815598
rfemur -17.70202369432385 3.5848795317407554 25.144534783200648
rtibia 39.97655310822884
rfoot -4.890566759772019 -10.513947798282974
rtoes 5.092662267272395
lowerback 11.60921456610728 0.528190381411821 2.4496221584882134
upperback -0.10123732389684831 1.250818380024716 1.9364532873171978
thorax -6.328021171832871 0.58931985764789 -0.27770636300456575
lowerneck -16.34725104896351 -3.123912140983409 -3.3862019656101707
upperneck 21.8952789881312 -3.8665381700361108 1.796721091054767
head 9.613610578049537 -1.8513096309627661 0.7500322896405838
lclavicle -2.024822991055781e-15 -7.107104016341424e-16
lhumerus -33.227319202630326 2.535496147420167 80.1392481016753
lradius 27.20741179467177
lwrist 6.036623772263561
lhand -29.505465929631217 19.11292369337267
lfingers 7.12502
lthumb -2.5730551192153737 49.388918072269206
rclavicle -2.0265554481532683e-15 -7.117961595221184e-16
rhumerus -29.962233496713495 -21.348059510568177 -75.4761566609381
rradius 20.958169026992714
rwrist 6.521200283027532
rhand -17.68446369101831 21.43885398585745
rfingers 7.12502
rthumb 7.987273817611034 -7.581759929054701
212
root 0.49354913432172687 17.591637914411585 62.645538034859854 -1.1528917195800903 -2.1549005551718268 -2.752758069824597
lfemur -11.316878092101739 -2.129659342426808 -18.048738333600102
ltibia 31.139454474726783
lfoot -1.6939198672378781 0.2684764467241987
ltoes -7.28262058539304
rfemur -17.857352078979044 3.2625160258527175 25.15051745315584
rtibia 39.94604881445358
rfoot -5.347082458239598 -10.493153002267768
rtoes 4.1995047098433815
lowerback 11.714306378432028 0.42328560216211836 2.3311973064072857
upperback -0.05777597345543953 1.089334555677186 1.9347528439720112
thorax -6.341475096131056 0.5095327759432147 -0.21238349003794488
lowerneck -16.352537121542625 -3.1375425210407673 -3.383168214178463
upperneck 21.8645927162003 -3.8915675982918323 1.8416739786737135
head 9.608105819809548 -1.856921487386058 0.7576323145215499
lclavicle -2.024602161008322e-15 -7.105698071087382e-16
lhumerus -33.28367389044166 2.966961123569856 80.00584856028348
lradius 27.091674237529244
lwrist 6.330256342037166
lhand -29.714193332670803 19.23983773795146
lfingers 7.12502
lthumb -2.788460054424625 49.5070734939472
rclavicle -2.0268189135994925e-15 -7.11964375344097e-16
rhumerus -29.983841068085827 -21.389973801264382 -75.42263829435687
rradius 20.955239598323086
rwrist 6.580230379291953
rhand -17.702748548321956 21.504759800932444
rfingers 7.12502
rthumb 7.954004068182386 -7.6077364303924995
213
root 0.49496991795447365 17.576683255259795 62.55612201992577 -1.4062949783023384 -2.139932496898934 -2.811579781184192
lfemur -11.462376002298285 -2.130229642697433 -17.943979837669563
ltibia 31.24021499425215
lfoot -2.4452093603602787 0.4669628289530494
ltoes -6.9859478022856925
rfemur -17.85964903635242 3.0125166574148343 25.386110887449657
rtibia 39.92863697511643
rfoot -5.8378894720434245 -10.539252956057142
rtoes 3.698000528575961
lowerback 11.895002514291347 0.37546554820784184 2.298760494238878
upperback -0.022019337371801118 1.0297318215238394 1.960471607399002
thorax -6.392837105857702 0.48021262293241396 -0.1660991635867608
lowerneck -16.331710993529278 -3.1508060995628386 -3.395368075770575
upperneck 21.847010758991807 -3.915284714918461 1.8621884661975505
head 9.60930916624564 -1.8623897018597924 0.7583253950510808
lclavicle -2.024269372386162e-15 -7.103576421884701e-16
lhumerus -33.277649393223264 3.364084210073944 79.91158026911899
lradius 26.845112160373837
lwrist 5.946930127593855
lhand -29.745174924704344 19.4248388232055
lfingers 7.12502
lthumb -2.7685731740168067 49.73947845885606
rclavicle -2.0269940821624834e-15 -7.120762388871113e-16
rhumerus -30.031558733808154 -21.589488689975333 -75.28251880159534
rradius 20.895187611720026
rwrist 6.559530506383094
rhand -17.71123060687313 21.51338156067471
rfingers 7.12502
rthumb 7.966819714100982 -7.593674887381591
214
root 0.497492403865551 17.569246990240053 62.51100564004417 -1.6620093096651936 -2.374935474528225 -2.8483183833687153
lfemur -11.5937373201122 -1.9694986654297328 -17.80842355240309
ltibia 31.04648627070183
lfoot -2.94644779518293 0.7610242013191124
ltoes -6.774836224827567
rfemur -17.70284447159839 3.130440691282784 25.66245759090155
rtibia 39.79334269579518
rfoot -6.336470666226559 -10.47958473770026
rtoes 3.106880389752858
lowerback 12.011545113263074 0.4498376306050784 2.150658135156757
upperback 0.05381081206220864 1.1128568655809448 1.9716324870097928
thorax -6.383428431493726 0.5225289722525566 -0.10455136831187084
lowerneck -16.34297065983849 -3.1613991873853102 -3.3967254787251067
upperneck 21.86597159932517 -3.9301570625219195 1.8637085625744527
head 9.624494713179288 -1.8667976447181296 0.7550581527801602
lclavicle -2.024478201705874e-15 -7.104915658073111e-16
lhumerus -33.26376156515144 3.6464240654800557 79.89371021224825
lradius 26.66501809374277
lwrist 5.718374132819301
lhand -29.793761826986117 19.63107871962047
lfingers 7.12502
lthumb -2.8183368129825217 49.98269144530346
rclavicle -2.0266971770194907e-15 -7.118866414584659e-16
rhumerus -30.0012856166744 -21.82930132102593 -75.08671017387177
rradius 20.703227073538198
rwrist 6.717716328860014
rhand -17.704753716735556 21.55762043673922
rfingers 7.12502
rthumb 7.990130750535439 -7.471298057410156
215
root 0.5072762969821563 17.595050785197817 62.525567932477024 -1.8291389456592624 -2.5060478297886135 -2.754992143701399
lfemur -11.688452376771327 -1.9042462723040825 -17.838095156608826
ltibia 30.55715419789236
lfoot -2.825729064969506 0.6158117885239118
ltoes -6.77445432199137
rfemur -17.43035120272506 3.2015694596210267 25.748485247449544
rtibia 39.480377416673605
rfoot -6.637152984245783 -10.32937734547518
rtoes 2.6409541725690038
lowerback 12.026644336312707 0.4901147122525893 1.9622787479361123
upperback 0.09803501804986653 1.1232017444687707 1.9670727422482617
thorax -6.320611668962422 0.5413120628559429 -0.05129630333452573
lowerneck -16.352293284943325 -3.159134259136095 -3.391121494065036
upperneck 21.90886543782591 -3.925134162460551 1.8755168329835772
head 9.639639463865993 -1.8641461187790074 0.7575754405443375
lclavicle -2.0244693978039205e-15 -7.104862492035524e-16
lhumerus -33.28026053800898 3.80343127816731 79.86004046362449
lradius 26.421371469096158
lwrist 5.427604429363017
lhand -29.739669178958216 19.871147376319865
lfingers 7.12502
lthumb -2.7925222400969263 50.22889942869888
rclavicle -2.026670509847788e-15 -7.118696068373281e-16
rhumerus -30.008242654687063 -22.078087989291102 -74.92870635080145
rradius 20.507980307959855
rwrist 6.670808654876421
rhand -17.654668911187304 21.557739218134074
rfingers 7.12502
rthumb 8.043456671379563 -7.453473726208559
216
root 0.5175106696353322 17.635421467538716 62.61088816760007 -1.8996859139459255 -2.525457139672362 -2.3865993460454518
lfemur -11.608216705263562 -1.9433263316150267 -18.102953005129503
ltibia 29.896025038219392
lfoot -2.143238739455736 0.08509727560453406
ltoes -7.1219741069306615
rfemur -17.270461200012086 3.203208302961012 25.46201868524161
rtibia 39.01711867937674
rfoot -6.937950992995229 -10.151753211290059
rtoes 2.1073102396500167
lowerback 11.978489980454759 0.45530682581334825 1.6014787857490036
upperback 0.12200181886834405 1.0235008839858482 1.9178350870927245
thorax -6.258443396058217 0.49941275528061363 0.06522436787027242
lowerneck -16.364821182057526 -3.142252826644309 -3.3709433572213108
upperneck 21.957885627832127 -3.897440379163356 1.8353848122459318
head 9.652124210205997 -1.8554588531419358 0.748975007681697
lclavicle -2.024630891733986e-15 -7.105894522824865e-16
lhumerus -33.292485360782585 3.7536099282139186 79.87273700011647
lradius 26.26124115275782
lwrist 5.575736154413047
lhand -29.58135108853163 19.800254242750732
lfingers 7.12502
lthumb -2.6941236163317996 50.22291362653527
rclavicle -2.027232296190113e-15 -7.122283288252913e-16
rhumerus -30.012210798309162 -22.352597232419527 -74.78996204996373
rradius 20.330867598205472
rwrist 6.6397888557021245
rhand -17.56436935367424 21.55278535711144
rfingers 7.12502
rthumb 8.121851143158942 -7.386551813408621
